<mxfile host="app.diagrams.net" modified="2023-04-22T12:13:31.703Z" agent="Mozilla/5.0 (Windows NT 10.0; Win64; x64) AppleWebKit/537.36 (KHTML, like Gecko) Chrome/112.0.0.0 Safari/537.36" etag="d1PO-XT1YjSL87WfSqzS" version="21.1.9" type="device">
  <diagram name="PÃ¡gina-1" id="Ik82pC3-ufhcDf3ugvoW">
    <mxGraphModel dx="1434" dy="777" grid="1" gridSize="10" guides="1" tooltips="1" connect="1" arrows="1" fold="1" page="1" pageScale="1" pageWidth="827" pageHeight="1169" math="0" shadow="0">
      <root>
        <mxCell id="0" />
        <mxCell id="1" parent="0" />
        <mxCell id="BvJ1IqxpmgRPftx4o2mJ-1" value="&lt;font style=&quot;font-size: 18px;&quot;&gt;Type&lt;/font&gt;" style="rounded=1;whiteSpace=wrap;html=1;" parent="1" vertex="1">
          <mxGeometry x="169" y="120" width="120" height="40" as="geometry" />
        </mxCell>
        <mxCell id="BvJ1IqxpmgRPftx4o2mJ-2" value="&lt;font style=&quot;font-size: 18px;&quot;&gt;Attribute&lt;/font&gt;" style="rounded=1;whiteSpace=wrap;html=1;" parent="1" vertex="1">
          <mxGeometry x="569" y="120" width="120" height="40" as="geometry" />
        </mxCell>
        <mxCell id="BvJ1IqxpmgRPftx4o2mJ-3" value="&lt;font style=&quot;font-size: 18px;&quot;&gt;Product&lt;/font&gt;" style="rounded=1;whiteSpace=wrap;html=1;" parent="1" vertex="1">
          <mxGeometry x="169" y="280" width="120" height="40" as="geometry" />
        </mxCell>
        <mxCell id="BvJ1IqxpmgRPftx4o2mJ-4" style="edgeStyle=orthogonalEdgeStyle;rounded=0;orthogonalLoop=1;jettySize=auto;html=1;exitX=0;exitY=0.5;exitDx=0;exitDy=0;entryX=1;entryY=0.5;entryDx=0;entryDy=0;" parent="1" source="BvJ1IqxpmgRPftx4o2mJ-8" target="BvJ1IqxpmgRPftx4o2mJ-1" edge="1">
          <mxGeometry relative="1" as="geometry" />
        </mxCell>
        <mxCell id="BvJ1IqxpmgRPftx4o2mJ-5" value="(0 : N)" style="edgeLabel;html=1;align=center;verticalAlign=middle;resizable=0;points=[];" parent="BvJ1IqxpmgRPftx4o2mJ-4" vertex="1" connectable="0">
          <mxGeometry x="0.2909" y="1" relative="1" as="geometry">
            <mxPoint x="-2" y="-2" as="offset" />
          </mxGeometry>
        </mxCell>
        <mxCell id="BvJ1IqxpmgRPftx4o2mJ-6" style="edgeStyle=orthogonalEdgeStyle;rounded=0;orthogonalLoop=1;jettySize=auto;html=1;exitX=1;exitY=0.5;exitDx=0;exitDy=0;entryX=0;entryY=0.5;entryDx=0;entryDy=0;" parent="1" edge="1">
          <mxGeometry relative="1" as="geometry">
            <mxPoint x="459" y="140" as="sourcePoint" />
            <mxPoint x="569" y="140" as="targetPoint" />
          </mxGeometry>
        </mxCell>
        <mxCell id="BvJ1IqxpmgRPftx4o2mJ-7" value="(1 : N)" style="edgeLabel;html=1;align=center;verticalAlign=middle;resizable=0;points=[];" parent="BvJ1IqxpmgRPftx4o2mJ-6" vertex="1" connectable="0">
          <mxGeometry x="0.7091" relative="1" as="geometry">
            <mxPoint x="-22" y="-1" as="offset" />
          </mxGeometry>
        </mxCell>
        <mxCell id="BvJ1IqxpmgRPftx4o2mJ-8" value="Tiene" style="rhombus;whiteSpace=wrap;html=1;strokeColor=#000000;strokeWidth=3;fontSize=14;fontColor=#000000;fillColor=#ffffff;gradientColor=none;" parent="1" vertex="1">
          <mxGeometry x="410" y="115" width="60" height="50" as="geometry" />
        </mxCell>
        <mxCell id="BvJ1IqxpmgRPftx4o2mJ-9" style="edgeStyle=orthogonalEdgeStyle;rounded=0;orthogonalLoop=1;jettySize=auto;html=1;exitX=0.5;exitY=0;exitDx=0;exitDy=0;entryX=0;entryY=0.5;entryDx=0;entryDy=0;" parent="1" source="BvJ1IqxpmgRPftx4o2mJ-13" target="BvJ1IqxpmgRPftx4o2mJ-1" edge="1">
          <mxGeometry relative="1" as="geometry" />
        </mxCell>
        <mxCell id="BvJ1IqxpmgRPftx4o2mJ-10" value="(1 : 1)" style="edgeLabel;html=1;align=center;verticalAlign=middle;resizable=0;points=[];" parent="BvJ1IqxpmgRPftx4o2mJ-9" vertex="1" connectable="0">
          <mxGeometry x="0.6364" y="-2" relative="1" as="geometry">
            <mxPoint x="-13" y="-2" as="offset" />
          </mxGeometry>
        </mxCell>
        <mxCell id="BvJ1IqxpmgRPftx4o2mJ-11" style="edgeStyle=orthogonalEdgeStyle;rounded=0;orthogonalLoop=1;jettySize=auto;html=1;exitX=0.5;exitY=1;exitDx=0;exitDy=0;entryX=0;entryY=0.5;entryDx=0;entryDy=0;" parent="1" source="BvJ1IqxpmgRPftx4o2mJ-13" target="BvJ1IqxpmgRPftx4o2mJ-3" edge="1">
          <mxGeometry relative="1" as="geometry" />
        </mxCell>
        <mxCell id="BvJ1IqxpmgRPftx4o2mJ-12" value="(0 : N)" style="edgeLabel;html=1;align=center;verticalAlign=middle;resizable=0;points=[];" parent="BvJ1IqxpmgRPftx4o2mJ-11" vertex="1" connectable="0">
          <mxGeometry x="0.7383" y="-2" relative="1" as="geometry">
            <mxPoint x="-10" y="-3" as="offset" />
          </mxGeometry>
        </mxCell>
        <mxCell id="BvJ1IqxpmgRPftx4o2mJ-13" value="Tiene" style="rhombus;whiteSpace=wrap;html=1;strokeColor=#000000;strokeWidth=1;fontSize=14;fontColor=#000000;fillColor=#ffffff;gradientColor=none;" parent="1" vertex="1">
          <mxGeometry x="50" y="160" width="60" height="50" as="geometry" />
        </mxCell>
        <mxCell id="BvJ1IqxpmgRPftx4o2mJ-14" style="edgeStyle=orthogonalEdgeStyle;rounded=0;orthogonalLoop=1;jettySize=auto;html=1;exitX=1;exitY=0.5;exitDx=0;exitDy=0;entryX=0;entryY=0;entryDx=0;entryDy=0;endArrow=none;endFill=0;" parent="1" source="BvJ1IqxpmgRPftx4o2mJ-15" target="BvJ1IqxpmgRPftx4o2mJ-1" edge="1">
          <mxGeometry relative="1" as="geometry" />
        </mxCell>
        <mxCell id="BvJ1IqxpmgRPftx4o2mJ-15" value="&lt;font color=&quot;#fafafa&quot; style=&quot;font-size: 14px;&quot;&gt;Id&lt;/font&gt;" style="ellipse;whiteSpace=wrap;html=1;fontSize=18;fillColor=#30436e;gradientColor=#f46767;strokeColor=#000000;strokeWidth=4;" parent="1" vertex="1">
          <mxGeometry x="119" y="80" width="30" height="30" as="geometry" />
        </mxCell>
        <mxCell id="BvJ1IqxpmgRPftx4o2mJ-16" style="edgeStyle=orthogonalEdgeStyle;rounded=0;orthogonalLoop=1;jettySize=auto;html=1;exitX=1;exitY=0.5;exitDx=0;exitDy=0;entryX=0;entryY=0;entryDx=0;entryDy=0;endArrow=none;endFill=0;" parent="1" source="BvJ1IqxpmgRPftx4o2mJ-17" target="BvJ1IqxpmgRPftx4o2mJ-2" edge="1">
          <mxGeometry relative="1" as="geometry" />
        </mxCell>
        <mxCell id="BvJ1IqxpmgRPftx4o2mJ-17" value="&lt;font color=&quot;#fafafa&quot; style=&quot;font-size: 14px;&quot;&gt;Id&lt;/font&gt;" style="ellipse;whiteSpace=wrap;html=1;fontSize=18;fillColor=#30436e;gradientColor=#f46767;strokeColor=#000000;strokeWidth=4;" parent="1" vertex="1">
          <mxGeometry x="519" y="80" width="30" height="30" as="geometry" />
        </mxCell>
        <mxCell id="BvJ1IqxpmgRPftx4o2mJ-18" style="edgeStyle=orthogonalEdgeStyle;rounded=0;orthogonalLoop=1;jettySize=auto;html=1;exitX=1;exitY=0.5;exitDx=0;exitDy=0;entryX=0;entryY=0;entryDx=0;entryDy=0;endArrow=none;endFill=0;" parent="1" source="BvJ1IqxpmgRPftx4o2mJ-19" target="BvJ1IqxpmgRPftx4o2mJ-3" edge="1">
          <mxGeometry relative="1" as="geometry" />
        </mxCell>
        <mxCell id="BvJ1IqxpmgRPftx4o2mJ-19" value="&lt;font color=&quot;#fafafa&quot; style=&quot;font-size: 14px;&quot;&gt;Id&lt;/font&gt;" style="ellipse;whiteSpace=wrap;html=1;fontSize=18;fillColor=#30436e;gradientColor=#f46767;strokeColor=#000000;strokeWidth=4;" parent="1" vertex="1">
          <mxGeometry x="119" y="240" width="30" height="30" as="geometry" />
        </mxCell>
        <mxCell id="BvJ1IqxpmgRPftx4o2mJ-20" style="edgeStyle=orthogonalEdgeStyle;rounded=0;orthogonalLoop=1;jettySize=auto;html=1;exitX=0.5;exitY=1;exitDx=0;exitDy=0;entryX=1;entryY=0;entryDx=0;entryDy=0;endArrow=none;endFill=0;" parent="1" source="BvJ1IqxpmgRPftx4o2mJ-21" target="BvJ1IqxpmgRPftx4o2mJ-1" edge="1">
          <mxGeometry relative="1" as="geometry" />
        </mxCell>
        <mxCell id="BvJ1IqxpmgRPftx4o2mJ-21" value="&lt;font color=&quot;#000000&quot;&gt;Name&lt;/font&gt;" style="ellipse;whiteSpace=wrap;html=1;fontSize=14;fontColor=#FAFAFA;fillColor=#FFFFFF;" parent="1" vertex="1">
          <mxGeometry x="279" y="50" width="60" height="30" as="geometry" />
        </mxCell>
        <mxCell id="BvJ1IqxpmgRPftx4o2mJ-22" style="edgeStyle=orthogonalEdgeStyle;rounded=0;orthogonalLoop=1;jettySize=auto;html=1;exitX=0.5;exitY=1;exitDx=0;exitDy=0;entryX=1;entryY=0;entryDx=0;entryDy=0;endArrow=none;endFill=0;" parent="1" source="BvJ1IqxpmgRPftx4o2mJ-23" target="BvJ1IqxpmgRPftx4o2mJ-2" edge="1">
          <mxGeometry relative="1" as="geometry" />
        </mxCell>
        <mxCell id="BvJ1IqxpmgRPftx4o2mJ-23" value="&lt;font color=&quot;#000000&quot;&gt;Name&lt;/font&gt;" style="ellipse;whiteSpace=wrap;html=1;fontSize=14;fontColor=#FAFAFA;fillColor=#FFFFFF;" parent="1" vertex="1">
          <mxGeometry x="679" y="50" width="60" height="30" as="geometry" />
        </mxCell>
        <mxCell id="BvJ1IqxpmgRPftx4o2mJ-24" style="edgeStyle=orthogonalEdgeStyle;rounded=0;orthogonalLoop=1;jettySize=auto;html=1;exitX=0.5;exitY=1;exitDx=0;exitDy=0;entryX=0.5;entryY=0;entryDx=0;entryDy=0;endArrow=none;endFill=0;" parent="1" source="BvJ1IqxpmgRPftx4o2mJ-25" target="BvJ1IqxpmgRPftx4o2mJ-1" edge="1">
          <mxGeometry relative="1" as="geometry" />
        </mxCell>
        <mxCell id="BvJ1IqxpmgRPftx4o2mJ-25" value="&lt;font color=&quot;#000000&quot;&gt;Description&lt;/font&gt;" style="ellipse;whiteSpace=wrap;html=1;fontSize=14;fontColor=#FAFAFA;fillColor=#FFFFFF;" parent="1" vertex="1">
          <mxGeometry x="169" y="50" width="80" height="30" as="geometry" />
        </mxCell>
        <mxCell id="BvJ1IqxpmgRPftx4o2mJ-26" style="edgeStyle=orthogonalEdgeStyle;rounded=0;orthogonalLoop=1;jettySize=auto;html=1;exitX=0.5;exitY=1;exitDx=0;exitDy=0;entryX=0.5;entryY=0;entryDx=0;entryDy=0;endArrow=none;endFill=0;" parent="1" source="BvJ1IqxpmgRPftx4o2mJ-27" target="BvJ1IqxpmgRPftx4o2mJ-2" edge="1">
          <mxGeometry relative="1" as="geometry" />
        </mxCell>
        <mxCell id="BvJ1IqxpmgRPftx4o2mJ-27" value="&lt;font color=&quot;#000000&quot;&gt;Description&lt;/font&gt;" style="ellipse;whiteSpace=wrap;html=1;fontSize=14;fontColor=#FAFAFA;fillColor=#FFFFFF;" parent="1" vertex="1">
          <mxGeometry x="569" y="50" width="80" height="30" as="geometry" />
        </mxCell>
        <mxCell id="BvJ1IqxpmgRPftx4o2mJ-28" style="edgeStyle=orthogonalEdgeStyle;rounded=0;orthogonalLoop=1;jettySize=auto;html=1;exitX=0.5;exitY=1;exitDx=0;exitDy=0;entryX=0.833;entryY=0.05;entryDx=0;entryDy=0;endArrow=none;endFill=0;entryPerimeter=0;" parent="1" source="BvJ1IqxpmgRPftx4o2mJ-29" target="BvJ1IqxpmgRPftx4o2mJ-3" edge="1">
          <mxGeometry relative="1" as="geometry" />
        </mxCell>
        <mxCell id="BvJ1IqxpmgRPftx4o2mJ-29" value="&lt;font color=&quot;#000000&quot;&gt;Name&lt;/font&gt;" style="ellipse;whiteSpace=wrap;html=1;fontSize=14;fontColor=#FAFAFA;fillColor=#FFFFFF;" parent="1" vertex="1">
          <mxGeometry x="279" y="210" width="60" height="30" as="geometry" />
        </mxCell>
        <mxCell id="BvJ1IqxpmgRPftx4o2mJ-30" style="edgeStyle=orthogonalEdgeStyle;rounded=0;orthogonalLoop=1;jettySize=auto;html=1;exitX=0.5;exitY=1;exitDx=0;exitDy=0;entryX=0.5;entryY=0;entryDx=0;entryDy=0;endArrow=none;endFill=0;" parent="1" source="BvJ1IqxpmgRPftx4o2mJ-31" target="BvJ1IqxpmgRPftx4o2mJ-3" edge="1">
          <mxGeometry relative="1" as="geometry" />
        </mxCell>
        <mxCell id="BvJ1IqxpmgRPftx4o2mJ-31" value="&lt;font color=&quot;#000000&quot;&gt;Stock&lt;/font&gt;" style="ellipse;whiteSpace=wrap;html=1;fontSize=14;fontColor=#FAFAFA;fillColor=#FFFFFF;" parent="1" vertex="1">
          <mxGeometry x="199" y="210" width="60" height="30" as="geometry" />
        </mxCell>
        <mxCell id="BvJ1IqxpmgRPftx4o2mJ-32" value="&lt;font style=&quot;font-size: 18px;&quot;&gt;Supplier&lt;/font&gt;" style="rounded=1;whiteSpace=wrap;html=1;" parent="1" vertex="1">
          <mxGeometry x="569" y="360" width="120" height="40" as="geometry" />
        </mxCell>
        <mxCell id="BvJ1IqxpmgRPftx4o2mJ-33" value="&lt;font style=&quot;font-size: 18px;&quot;&gt;Client&lt;/font&gt;" style="rounded=1;whiteSpace=wrap;html=1;" parent="1" vertex="1">
          <mxGeometry x="160" y="520" width="120" height="40" as="geometry" />
        </mxCell>
        <mxCell id="BvJ1IqxpmgRPftx4o2mJ-34" style="edgeStyle=orthogonalEdgeStyle;rounded=0;orthogonalLoop=1;jettySize=auto;html=1;exitX=0;exitY=0.5;exitDx=0;exitDy=0;entryX=0.5;entryY=1;entryDx=0;entryDy=0;endArrow=classic;endFill=1;" parent="1" source="BvJ1IqxpmgRPftx4o2mJ-38" target="BvJ1IqxpmgRPftx4o2mJ-3" edge="1">
          <mxGeometry relative="1" as="geometry" />
        </mxCell>
        <mxCell id="BvJ1IqxpmgRPftx4o2mJ-35" value="(0 : N)" style="edgeLabel;html=1;align=center;verticalAlign=middle;resizable=0;points=[];" parent="BvJ1IqxpmgRPftx4o2mJ-34" vertex="1" connectable="0">
          <mxGeometry x="0.2707" y="-2" relative="1" as="geometry">
            <mxPoint x="-17" y="-18" as="offset" />
          </mxGeometry>
        </mxCell>
        <mxCell id="BvJ1IqxpmgRPftx4o2mJ-36" style="edgeStyle=orthogonalEdgeStyle;rounded=0;orthogonalLoop=1;jettySize=auto;html=1;exitX=1;exitY=0.5;exitDx=0;exitDy=0;entryX=0;entryY=0.5;entryDx=0;entryDy=0;endArrow=classic;endFill=1;" parent="1" source="BvJ1IqxpmgRPftx4o2mJ-38" target="BvJ1IqxpmgRPftx4o2mJ-32" edge="1">
          <mxGeometry relative="1" as="geometry" />
        </mxCell>
        <mxCell id="BvJ1IqxpmgRPftx4o2mJ-37" value="(1 : N)" style="edgeLabel;html=1;align=center;verticalAlign=middle;resizable=0;points=[];" parent="BvJ1IqxpmgRPftx4o2mJ-36" vertex="1" connectable="0">
          <mxGeometry x="0.2486" y="1" relative="1" as="geometry">
            <mxPoint x="1" as="offset" />
          </mxGeometry>
        </mxCell>
        <mxCell id="BvJ1IqxpmgRPftx4o2mJ-38" value="Delibery&lt;br&gt;Note" style="rhombus;whiteSpace=wrap;html=1;strokeColor=#0A0A0A;strokeWidth=3;fontSize=14;fontColor=#000000;fillColor=#ffffff;gradientColor=none;dashed=1;dashPattern=1 1;shadow=1;" parent="1" vertex="1">
          <mxGeometry x="371.63" y="360" width="98.37" height="53" as="geometry" />
        </mxCell>
        <mxCell id="BvJ1IqxpmgRPftx4o2mJ-39" style="edgeStyle=orthogonalEdgeStyle;rounded=0;orthogonalLoop=1;jettySize=auto;html=1;exitX=0.5;exitY=1;exitDx=0;exitDy=0;entryX=0;entryY=0.5;entryDx=0;entryDy=0;endArrow=classic;endFill=1;" parent="1" source="BvJ1IqxpmgRPftx4o2mJ-43" target="BvJ1IqxpmgRPftx4o2mJ-33" edge="1">
          <mxGeometry relative="1" as="geometry" />
        </mxCell>
        <mxCell id="BvJ1IqxpmgRPftx4o2mJ-40" value="(0 : N)" style="edgeLabel;html=1;align=center;verticalAlign=middle;resizable=0;points=[];" parent="BvJ1IqxpmgRPftx4o2mJ-39" vertex="1" connectable="0">
          <mxGeometry x="0.6678" y="2" relative="1" as="geometry">
            <mxPoint x="-7" y="2" as="offset" />
          </mxGeometry>
        </mxCell>
        <mxCell id="BvJ1IqxpmgRPftx4o2mJ-41" style="edgeStyle=orthogonalEdgeStyle;rounded=0;orthogonalLoop=1;jettySize=auto;html=1;exitX=0.5;exitY=0;exitDx=0;exitDy=0;entryX=0;entryY=1;entryDx=0;entryDy=0;endArrow=classic;endFill=1;" parent="1" source="BvJ1IqxpmgRPftx4o2mJ-43" target="BvJ1IqxpmgRPftx4o2mJ-3" edge="1">
          <mxGeometry relative="1" as="geometry" />
        </mxCell>
        <mxCell id="BvJ1IqxpmgRPftx4o2mJ-42" value="(0 : N)" style="edgeLabel;html=1;align=center;verticalAlign=middle;resizable=0;points=[];" parent="BvJ1IqxpmgRPftx4o2mJ-41" vertex="1" connectable="0">
          <mxGeometry x="0.671" y="1" relative="1" as="geometry">
            <mxPoint x="1" as="offset" />
          </mxGeometry>
        </mxCell>
        <mxCell id="BvJ1IqxpmgRPftx4o2mJ-43" value="Sales" style="rhombus;whiteSpace=wrap;html=1;strokeColor=#000000;strokeWidth=3;fontSize=14;fontColor=#000000;fillColor=#ffffff;gradientColor=none;dashed=1;dashPattern=1 1;shadow=1;" parent="1" vertex="1">
          <mxGeometry x="50" y="400" width="60" height="50" as="geometry" />
        </mxCell>
        <mxCell id="BvJ1IqxpmgRPftx4o2mJ-44" style="edgeStyle=orthogonalEdgeStyle;rounded=0;orthogonalLoop=1;jettySize=auto;html=1;exitX=1;exitY=0.5;exitDx=0;exitDy=0;entryX=0;entryY=0;entryDx=0;entryDy=0;endArrow=none;endFill=0;" parent="1" source="BvJ1IqxpmgRPftx4o2mJ-45" target="BvJ1IqxpmgRPftx4o2mJ-33" edge="1">
          <mxGeometry relative="1" as="geometry" />
        </mxCell>
        <mxCell id="BvJ1IqxpmgRPftx4o2mJ-45" value="&lt;font color=&quot;#fafafa&quot; style=&quot;font-size: 14px;&quot;&gt;Id&lt;/font&gt;" style="ellipse;whiteSpace=wrap;html=1;fontSize=18;fillColor=#30436e;gradientColor=#f46767;strokeColor=#000000;strokeWidth=4;" parent="1" vertex="1">
          <mxGeometry x="110" y="480" width="30" height="30" as="geometry" />
        </mxCell>
        <mxCell id="BvJ1IqxpmgRPftx4o2mJ-46" style="edgeStyle=orthogonalEdgeStyle;rounded=0;orthogonalLoop=1;jettySize=auto;html=1;exitX=1;exitY=0.5;exitDx=0;exitDy=0;entryX=0;entryY=0;entryDx=0;entryDy=0;endArrow=none;endFill=0;" parent="1" source="BvJ1IqxpmgRPftx4o2mJ-47" target="BvJ1IqxpmgRPftx4o2mJ-32" edge="1">
          <mxGeometry relative="1" as="geometry" />
        </mxCell>
        <mxCell id="BvJ1IqxpmgRPftx4o2mJ-47" value="&lt;font color=&quot;#fafafa&quot; style=&quot;font-size: 14px;&quot;&gt;Id&lt;/font&gt;" style="ellipse;whiteSpace=wrap;html=1;fontSize=18;fillColor=#30436e;gradientColor=#f46767;strokeColor=#000000;strokeWidth=4;" parent="1" vertex="1">
          <mxGeometry x="519" y="320" width="30" height="30" as="geometry" />
        </mxCell>
        <mxCell id="BvJ1IqxpmgRPftx4o2mJ-48" style="edgeStyle=orthogonalEdgeStyle;rounded=0;orthogonalLoop=1;jettySize=auto;html=1;exitX=0;exitY=0.5;exitDx=0;exitDy=0;entryX=1;entryY=0.5;entryDx=0;entryDy=0;endArrow=none;endFill=0;" parent="1" source="BvJ1IqxpmgRPftx4o2mJ-49" target="BvJ1IqxpmgRPftx4o2mJ-43" edge="1">
          <mxGeometry relative="1" as="geometry" />
        </mxCell>
        <mxCell id="BvJ1IqxpmgRPftx4o2mJ-49" value="&lt;font color=&quot;#000000&quot;&gt;Number&lt;/font&gt;" style="ellipse;whiteSpace=wrap;html=1;fontSize=14;fontColor=#FAFAFA;fillColor=#FFFFFF;" parent="1" vertex="1">
          <mxGeometry x="130" y="410" width="60" height="30" as="geometry" />
        </mxCell>
        <mxCell id="BvJ1IqxpmgRPftx4o2mJ-50" style="edgeStyle=orthogonalEdgeStyle;rounded=0;orthogonalLoop=1;jettySize=auto;html=1;exitX=0.5;exitY=1;exitDx=0;exitDy=0;entryX=1;entryY=0;entryDx=0;entryDy=0;endArrow=none;endFill=0;" parent="1" source="BvJ1IqxpmgRPftx4o2mJ-51" target="BvJ1IqxpmgRPftx4o2mJ-33" edge="1">
          <mxGeometry relative="1" as="geometry" />
        </mxCell>
        <mxCell id="BvJ1IqxpmgRPftx4o2mJ-51" value="&lt;font color=&quot;#000000&quot;&gt;Name&lt;/font&gt;" style="ellipse;whiteSpace=wrap;html=1;fontSize=14;fontColor=#FAFAFA;fillColor=#FFFFFF;" parent="1" vertex="1">
          <mxGeometry x="290" y="410" width="60" height="30" as="geometry" />
        </mxCell>
        <mxCell id="BvJ1IqxpmgRPftx4o2mJ-52" style="edgeStyle=orthogonalEdgeStyle;rounded=0;orthogonalLoop=1;jettySize=auto;html=1;exitX=0.5;exitY=1;exitDx=0;exitDy=0;entryX=1;entryY=0;entryDx=0;entryDy=0;endArrow=none;endFill=0;" parent="1" source="BvJ1IqxpmgRPftx4o2mJ-53" target="BvJ1IqxpmgRPftx4o2mJ-32" edge="1">
          <mxGeometry relative="1" as="geometry" />
        </mxCell>
        <mxCell id="BvJ1IqxpmgRPftx4o2mJ-53" value="&lt;font color=&quot;#000000&quot;&gt;Name&lt;/font&gt;" style="ellipse;whiteSpace=wrap;html=1;fontSize=14;fontColor=#FAFAFA;fillColor=#FFFFFF;" parent="1" vertex="1">
          <mxGeometry x="649" y="290" width="60" height="30" as="geometry" />
        </mxCell>
        <mxCell id="BvJ1IqxpmgRPftx4o2mJ-54" style="edgeStyle=orthogonalEdgeStyle;rounded=0;orthogonalLoop=1;jettySize=auto;html=1;exitX=0.5;exitY=1;exitDx=0;exitDy=0;entryX=0.75;entryY=0;entryDx=0;entryDy=0;endArrow=none;endFill=0;" parent="1" source="BvJ1IqxpmgRPftx4o2mJ-55" target="BvJ1IqxpmgRPftx4o2mJ-33" edge="1">
          <mxGeometry relative="1" as="geometry" />
        </mxCell>
        <mxCell id="BvJ1IqxpmgRPftx4o2mJ-55" value="&lt;font color=&quot;#000000&quot;&gt;LastName&lt;/font&gt;" style="ellipse;whiteSpace=wrap;html=1;fontSize=14;fontColor=#FAFAFA;fillColor=#FFFFFF;" parent="1" vertex="1">
          <mxGeometry x="215" y="440" width="70" height="30" as="geometry" />
        </mxCell>
        <mxCell id="BvJ1IqxpmgRPftx4o2mJ-56" style="edgeStyle=orthogonalEdgeStyle;rounded=0;orthogonalLoop=1;jettySize=auto;html=1;exitX=1;exitY=0.5;exitDx=0;exitDy=0;entryX=0.5;entryY=0;entryDx=0;entryDy=0;endArrow=none;endFill=0;" parent="1" source="BvJ1IqxpmgRPftx4o2mJ-57" target="BvJ1IqxpmgRPftx4o2mJ-33" edge="1">
          <mxGeometry relative="1" as="geometry" />
        </mxCell>
        <mxCell id="BvJ1IqxpmgRPftx4o2mJ-57" value="&lt;font color=&quot;#000000&quot;&gt;Age&lt;/font&gt;" style="ellipse;whiteSpace=wrap;html=1;fontSize=14;fontColor=#FAFAFA;fillColor=#FFFFFF;" parent="1" vertex="1">
          <mxGeometry x="175" y="475" width="35" height="30" as="geometry" />
        </mxCell>
        <mxCell id="BvJ1IqxpmgRPftx4o2mJ-58" style="edgeStyle=orthogonalEdgeStyle;rounded=0;orthogonalLoop=1;jettySize=auto;html=1;exitX=0.5;exitY=1;exitDx=0;exitDy=0;entryX=0.5;entryY=0;entryDx=0;entryDy=0;endArrow=none;endFill=0;" parent="1" source="BvJ1IqxpmgRPftx4o2mJ-59" target="BvJ1IqxpmgRPftx4o2mJ-32" edge="1">
          <mxGeometry relative="1" as="geometry" />
        </mxCell>
        <mxCell id="BvJ1IqxpmgRPftx4o2mJ-59" value="&lt;font color=&quot;#000000&quot;&gt;Email&lt;/font&gt;" style="ellipse;whiteSpace=wrap;html=1;fontSize=14;fontColor=#FAFAFA;fillColor=#FFFFFF;" parent="1" vertex="1">
          <mxGeometry x="604" y="318" width="50" height="30" as="geometry" />
        </mxCell>
        <mxCell id="BvJ1IqxpmgRPftx4o2mJ-60" style="edgeStyle=orthogonalEdgeStyle;rounded=0;orthogonalLoop=1;jettySize=auto;html=1;exitX=0.5;exitY=0;exitDx=0;exitDy=0;entryX=1;entryY=1;entryDx=0;entryDy=0;endArrow=none;endFill=0;" parent="1" source="BvJ1IqxpmgRPftx4o2mJ-61" target="BvJ1IqxpmgRPftx4o2mJ-32" edge="1">
          <mxGeometry relative="1" as="geometry" />
        </mxCell>
        <mxCell id="BvJ1IqxpmgRPftx4o2mJ-61" value="&lt;font color=&quot;#000000&quot;&gt;Address&lt;/font&gt;" style="ellipse;whiteSpace=wrap;html=1;fontSize=14;fontColor=#FAFAFA;fillColor=#FFFFFF;" parent="1" vertex="1">
          <mxGeometry x="649" y="450" width="60" height="30" as="geometry" />
        </mxCell>
        <mxCell id="BvJ1IqxpmgRPftx4o2mJ-62" style="edgeStyle=orthogonalEdgeStyle;rounded=0;orthogonalLoop=1;jettySize=auto;html=1;exitX=0.5;exitY=0;exitDx=0;exitDy=0;entryX=0.5;entryY=1;entryDx=0;entryDy=0;endArrow=none;endFill=0;" parent="1" source="BvJ1IqxpmgRPftx4o2mJ-63" target="BvJ1IqxpmgRPftx4o2mJ-32" edge="1">
          <mxGeometry relative="1" as="geometry" />
        </mxCell>
        <mxCell id="BvJ1IqxpmgRPftx4o2mJ-63" value="&lt;font color=&quot;#000000&quot;&gt;Description&lt;/font&gt;" style="ellipse;whiteSpace=wrap;html=1;fontSize=14;fontColor=#FAFAFA;fillColor=#FFFFFF;" parent="1" vertex="1">
          <mxGeometry x="589" y="413" width="80" height="30" as="geometry" />
        </mxCell>
        <mxCell id="BvJ1IqxpmgRPftx4o2mJ-64" style="edgeStyle=orthogonalEdgeStyle;rounded=0;orthogonalLoop=1;jettySize=auto;html=1;exitX=1;exitY=0.5;exitDx=0;exitDy=0;entryX=0.5;entryY=1;entryDx=0;entryDy=0;" parent="1" source="BvJ1IqxpmgRPftx4o2mJ-68" target="BvJ1IqxpmgRPftx4o2mJ-2" edge="1">
          <mxGeometry relative="1" as="geometry" />
        </mxCell>
        <mxCell id="BvJ1IqxpmgRPftx4o2mJ-65" value="(1 : N)" style="edgeLabel;html=1;align=center;verticalAlign=middle;resizable=0;points=[];" parent="BvJ1IqxpmgRPftx4o2mJ-64" vertex="1" connectable="0">
          <mxGeometry x="0.7441" y="3" relative="1" as="geometry">
            <mxPoint x="3" as="offset" />
          </mxGeometry>
        </mxCell>
        <mxCell id="BvJ1IqxpmgRPftx4o2mJ-66" style="edgeStyle=orthogonalEdgeStyle;rounded=0;orthogonalLoop=1;jettySize=auto;html=1;exitX=0;exitY=0.5;exitDx=0;exitDy=0;" parent="1" source="BvJ1IqxpmgRPftx4o2mJ-68" edge="1">
          <mxGeometry relative="1" as="geometry">
            <Array as="points">
              <mxPoint x="349" y="241" />
              <mxPoint x="349" y="300" />
            </Array>
            <mxPoint x="289" y="300" as="targetPoint" />
          </mxGeometry>
        </mxCell>
        <mxCell id="BvJ1IqxpmgRPftx4o2mJ-67" value="(0 : N)" style="edgeLabel;html=1;align=center;verticalAlign=middle;resizable=0;points=[];" parent="BvJ1IqxpmgRPftx4o2mJ-66" vertex="1" connectable="0">
          <mxGeometry x="0.6208" y="-1" relative="1" as="geometry">
            <mxPoint x="-3" y="1" as="offset" />
          </mxGeometry>
        </mxCell>
        <mxCell id="BvJ1IqxpmgRPftx4o2mJ-68" value="Tiene" style="rhombus;whiteSpace=wrap;html=1;strokeColor=#000000;strokeWidth=3;fontSize=14;fontColor=#000000;fillColor=#ffffff;gradientColor=none;" parent="1" vertex="1">
          <mxGeometry x="410" y="216" width="60" height="50" as="geometry" />
        </mxCell>
        <mxCell id="BvJ1IqxpmgRPftx4o2mJ-69" value="&lt;font color=&quot;#000000&quot;&gt;ValueType&lt;/font&gt;" style="ellipse;whiteSpace=wrap;html=1;fontSize=14;fontColor=#FAFAFA;fillColor=#FFFFFF;" parent="1" vertex="1">
          <mxGeometry x="720" y="125" width="80" height="30" as="geometry" />
        </mxCell>
        <mxCell id="BvJ1IqxpmgRPftx4o2mJ-70" value="" style="endArrow=none;html=1;rounded=0;entryX=0;entryY=0.5;entryDx=0;entryDy=0;exitX=1;exitY=0.5;exitDx=0;exitDy=0;" parent="1" source="BvJ1IqxpmgRPftx4o2mJ-2" target="BvJ1IqxpmgRPftx4o2mJ-69" edge="1">
          <mxGeometry width="50" height="50" relative="1" as="geometry">
            <mxPoint x="744" y="240" as="sourcePoint" />
            <mxPoint x="794" y="190" as="targetPoint" />
          </mxGeometry>
        </mxCell>
        <mxCell id="BvJ1IqxpmgRPftx4o2mJ-71" value="&lt;font color=&quot;#000000&quot;&gt;Valor&lt;/font&gt;" style="ellipse;whiteSpace=wrap;html=1;fontSize=14;fontColor=#FAFAFA;fillColor=#FFFFFF;" parent="1" vertex="1">
          <mxGeometry x="394" y="186" width="40" height="24" as="geometry" />
        </mxCell>
        <mxCell id="BvJ1IqxpmgRPftx4o2mJ-72" value="" style="endArrow=none;html=1;rounded=0;entryX=1;entryY=0.5;entryDx=0;entryDy=0;exitX=0.5;exitY=0;exitDx=0;exitDy=0;" parent="1" source="BvJ1IqxpmgRPftx4o2mJ-68" target="BvJ1IqxpmgRPftx4o2mJ-71" edge="1">
          <mxGeometry width="50" height="50" relative="1" as="geometry">
            <mxPoint x="389" y="350" as="sourcePoint" />
            <mxPoint x="439" y="300" as="targetPoint" />
            <Array as="points">
              <mxPoint x="440" y="200" />
            </Array>
          </mxGeometry>
        </mxCell>
        <mxCell id="BvJ1IqxpmgRPftx4o2mJ-73" value="&lt;font style=&quot;font-size: 18px;&quot;&gt;Type_Attribute&lt;/font&gt;" style="swimlane;fontStyle=0;childLayout=stackLayout;horizontal=1;startSize=30;horizontalStack=0;resizeParent=1;resizeParentMax=0;resizeLast=0;collapsible=1;marginBottom=0;whiteSpace=wrap;html=1;" parent="1" vertex="1">
          <mxGeometry x="316.63" y="600" width="120" height="90" as="geometry" />
        </mxCell>
        <mxCell id="BvJ1IqxpmgRPftx4o2mJ-74" value="&lt;font color=&quot;#fafafa&quot;&gt;Id_Attribute&lt;/font&gt;" style="text;strokeColor=#666666;fillColor=#463e7e;align=left;verticalAlign=middle;spacingLeft=4;spacingRight=4;overflow=hidden;points=[[0,0.5],[1,0.5]];portConstraint=eastwest;rotatable=0;whiteSpace=wrap;html=1;gradientColor=#a95151;" parent="BvJ1IqxpmgRPftx4o2mJ-73" vertex="1">
          <mxGeometry y="30" width="120" height="30" as="geometry" />
        </mxCell>
        <mxCell id="BvJ1IqxpmgRPftx4o2mJ-110" value="&lt;font color=&quot;#fafafa&quot;&gt;Id_Type&lt;/font&gt;" style="text;strokeColor=#666666;fillColor=#463e7e;align=left;verticalAlign=middle;spacingLeft=4;spacingRight=4;overflow=hidden;points=[[0,0.5],[1,0.5]];portConstraint=eastwest;rotatable=0;whiteSpace=wrap;html=1;gradientColor=#a95151;" parent="BvJ1IqxpmgRPftx4o2mJ-73" vertex="1">
          <mxGeometry y="60" width="120" height="30" as="geometry" />
        </mxCell>
        <mxCell id="BvJ1IqxpmgRPftx4o2mJ-82" value="&lt;font style=&quot;font-size: 18px;&quot;&gt;Product&lt;/font&gt;" style="swimlane;fontStyle=0;childLayout=stackLayout;horizontal=1;startSize=30;horizontalStack=0;resizeParent=1;resizeParentMax=0;resizeLast=0;collapsible=1;marginBottom=0;whiteSpace=wrap;html=1;" parent="1" vertex="1">
          <mxGeometry x="295" y="720" width="78.37" height="150" as="geometry" />
        </mxCell>
        <mxCell id="BvJ1IqxpmgRPftx4o2mJ-83" value="&lt;font color=&quot;#fafafa&quot;&gt;Id&lt;/font&gt;" style="text;strokeColor=#666666;fillColor=#463e7e;align=left;verticalAlign=middle;spacingLeft=4;spacingRight=4;overflow=hidden;points=[[0,0.5],[1,0.5]];portConstraint=eastwest;rotatable=0;whiteSpace=wrap;html=1;gradientColor=#a95151;" parent="BvJ1IqxpmgRPftx4o2mJ-82" vertex="1">
          <mxGeometry y="30" width="78.37" height="30" as="geometry" />
        </mxCell>
        <mxCell id="BvJ1IqxpmgRPftx4o2mJ-75" value="Id_Type" style="text;strokeColor=#666666;fillColor=#c5c0e8;align=left;verticalAlign=middle;spacingLeft=4;spacingRight=4;overflow=hidden;points=[[0,0.5],[1,0.5]];portConstraint=eastwest;rotatable=0;whiteSpace=wrap;html=1;gradientColor=#b2a4a4;" parent="BvJ1IqxpmgRPftx4o2mJ-82" vertex="1">
          <mxGeometry y="60" width="78.37" height="30" as="geometry" />
        </mxCell>
        <mxCell id="BvJ1IqxpmgRPftx4o2mJ-84" value="Name" style="text;strokeColor=none;fillColor=none;align=left;verticalAlign=middle;spacingLeft=4;spacingRight=4;overflow=hidden;points=[[0,0.5],[1,0.5]];portConstraint=eastwest;rotatable=0;whiteSpace=wrap;html=1;" parent="BvJ1IqxpmgRPftx4o2mJ-82" vertex="1">
          <mxGeometry y="90" width="78.37" height="30" as="geometry" />
        </mxCell>
        <mxCell id="BvJ1IqxpmgRPftx4o2mJ-138" value="Stock" style="text;strokeColor=none;fillColor=none;align=left;verticalAlign=middle;spacingLeft=4;spacingRight=4;overflow=hidden;points=[[0,0.5],[1,0.5]];portConstraint=eastwest;rotatable=0;whiteSpace=wrap;html=1;" parent="BvJ1IqxpmgRPftx4o2mJ-82" vertex="1">
          <mxGeometry y="120" width="78.37" height="30" as="geometry" />
        </mxCell>
        <mxCell id="BvJ1IqxpmgRPftx4o2mJ-98" value="&lt;font style=&quot;font-size: 18px;&quot;&gt;Attribute&lt;/font&gt;" style="swimlane;fontStyle=0;childLayout=stackLayout;horizontal=1;startSize=30;horizontalStack=0;resizeParent=1;resizeParentMax=0;resizeLast=0;collapsible=1;marginBottom=0;whiteSpace=wrap;html=1;" parent="1" vertex="1">
          <mxGeometry x="134" y="600" width="81" height="150" as="geometry" />
        </mxCell>
        <mxCell id="BvJ1IqxpmgRPftx4o2mJ-99" value="&lt;font color=&quot;#fafafa&quot;&gt;Id&lt;/font&gt;" style="text;strokeColor=#666666;fillColor=#463e7e;align=left;verticalAlign=middle;spacingLeft=4;spacingRight=4;overflow=hidden;points=[[0,0.5],[1,0.5]];portConstraint=eastwest;rotatable=0;whiteSpace=wrap;html=1;gradientColor=#a95151;" parent="BvJ1IqxpmgRPftx4o2mJ-98" vertex="1">
          <mxGeometry y="30" width="81" height="30" as="geometry" />
        </mxCell>
        <mxCell id="BvJ1IqxpmgRPftx4o2mJ-100" value="Name" style="text;strokeColor=none;fillColor=none;align=left;verticalAlign=middle;spacingLeft=4;spacingRight=4;overflow=hidden;points=[[0,0.5],[1,0.5]];portConstraint=eastwest;rotatable=0;whiteSpace=wrap;html=1;" parent="BvJ1IqxpmgRPftx4o2mJ-98" vertex="1">
          <mxGeometry y="60" width="81" height="30" as="geometry" />
        </mxCell>
        <mxCell id="BvJ1IqxpmgRPftx4o2mJ-101" value="Description" style="text;strokeColor=none;fillColor=none;align=left;verticalAlign=middle;spacingLeft=4;spacingRight=4;overflow=hidden;points=[[0,0.5],[1,0.5]];portConstraint=eastwest;rotatable=0;whiteSpace=wrap;html=1;" parent="BvJ1IqxpmgRPftx4o2mJ-98" vertex="1">
          <mxGeometry y="90" width="81" height="30" as="geometry" />
        </mxCell>
        <mxCell id="BvJ1IqxpmgRPftx4o2mJ-102" value="ValueType" style="text;strokeColor=none;fillColor=none;align=left;verticalAlign=middle;spacingLeft=4;spacingRight=4;overflow=hidden;points=[[0,0.5],[1,0.5]];portConstraint=eastwest;rotatable=0;whiteSpace=wrap;html=1;" parent="BvJ1IqxpmgRPftx4o2mJ-98" vertex="1">
          <mxGeometry y="120" width="81" height="30" as="geometry" />
        </mxCell>
        <mxCell id="BvJ1IqxpmgRPftx4o2mJ-103" value="" style="endArrow=ERone;html=1;rounded=0;startArrow=ERoneToMany;startFill=0;endFill=0;exitX=0.995;exitY=0.098;exitDx=0;exitDy=0;exitPerimeter=0;entryX=0.005;entryY=0.171;entryDx=0;entryDy=0;entryPerimeter=0;" parent="1" source="BvJ1IqxpmgRPftx4o2mJ-98" target="BvJ1IqxpmgRPftx4o2mJ-73" edge="1">
          <mxGeometry width="50" height="50" relative="1" as="geometry">
            <mxPoint x="227.63" y="840" as="sourcePoint" />
            <mxPoint x="285.63" y="850" as="targetPoint" />
          </mxGeometry>
        </mxCell>
        <mxCell id="BvJ1IqxpmgRPftx4o2mJ-104" value="" style="endArrow=ERzeroToMany;html=1;rounded=0;startArrow=ERmandOne;startFill=0;endFill=0;exitX=-0.012;exitY=0.351;exitDx=0;exitDy=0;exitPerimeter=0;entryX=0.989;entryY=0.108;entryDx=0;entryDy=0;entryPerimeter=0;" parent="1" source="BvJ1IqxpmgRPftx4o2mJ-108" target="BvJ1IqxpmgRPftx4o2mJ-82" edge="1">
          <mxGeometry width="50" height="50" relative="1" as="geometry">
            <mxPoint x="376.63" y="690" as="sourcePoint" />
            <mxPoint x="435" y="750" as="targetPoint" />
            <Array as="points">
              <mxPoint x="455" y="700" />
              <mxPoint x="455" y="736" />
            </Array>
          </mxGeometry>
        </mxCell>
        <mxCell id="BvJ1IqxpmgRPftx4o2mJ-105" value="&lt;font style=&quot;font-size: 18px;&quot;&gt;Type&lt;/font&gt;" style="swimlane;fontStyle=0;childLayout=stackLayout;horizontal=1;startSize=30;horizontalStack=0;resizeParent=1;resizeParentMax=0;resizeLast=0;collapsible=1;marginBottom=0;whiteSpace=wrap;html=1;" parent="1" vertex="1">
          <mxGeometry x="500.13" y="600" width="74.87" height="120" as="geometry" />
        </mxCell>
        <mxCell id="BvJ1IqxpmgRPftx4o2mJ-106" value="&lt;font color=&quot;#fafafa&quot;&gt;Id&lt;/font&gt;" style="text;strokeColor=#666666;fillColor=#463e7e;align=left;verticalAlign=middle;spacingLeft=4;spacingRight=4;overflow=hidden;points=[[0,0.5],[1,0.5]];portConstraint=eastwest;rotatable=0;whiteSpace=wrap;html=1;gradientColor=#a95151;" parent="BvJ1IqxpmgRPftx4o2mJ-105" vertex="1">
          <mxGeometry y="30" width="74.87" height="30" as="geometry" />
        </mxCell>
        <mxCell id="BvJ1IqxpmgRPftx4o2mJ-107" value="Name" style="text;strokeColor=none;fillColor=none;align=left;verticalAlign=middle;spacingLeft=4;spacingRight=4;overflow=hidden;points=[[0,0.5],[1,0.5]];portConstraint=eastwest;rotatable=0;whiteSpace=wrap;html=1;" parent="BvJ1IqxpmgRPftx4o2mJ-105" vertex="1">
          <mxGeometry y="60" width="74.87" height="30" as="geometry" />
        </mxCell>
        <mxCell id="BvJ1IqxpmgRPftx4o2mJ-108" value="Description" style="text;strokeColor=none;fillColor=none;align=left;verticalAlign=middle;spacingLeft=4;spacingRight=4;overflow=hidden;points=[[0,0.5],[1,0.5]];portConstraint=eastwest;rotatable=0;whiteSpace=wrap;html=1;" parent="BvJ1IqxpmgRPftx4o2mJ-105" vertex="1">
          <mxGeometry y="90" width="74.87" height="30" as="geometry" />
        </mxCell>
        <mxCell id="BvJ1IqxpmgRPftx4o2mJ-111" value="" style="endArrow=ERoneToMany;html=1;rounded=0;startArrow=ERmandOne;startFill=0;endFill=0;exitX=1.003;exitY=0.156;exitDx=0;exitDy=0;exitPerimeter=0;entryX=-0.003;entryY=0.114;entryDx=0;entryDy=0;entryPerimeter=0;" parent="1" source="BvJ1IqxpmgRPftx4o2mJ-73" target="BvJ1IqxpmgRPftx4o2mJ-105" edge="1">
          <mxGeometry width="50" height="50" relative="1" as="geometry">
            <mxPoint x="244.63" y="625" as="sourcePoint" />
            <mxPoint x="446.63" y="650" as="targetPoint" />
          </mxGeometry>
        </mxCell>
        <mxCell id="BvJ1IqxpmgRPftx4o2mJ-112" value="&lt;font style=&quot;font-size: 18px;&quot;&gt;Product_Attribute&lt;/font&gt;" style="swimlane;fontStyle=0;childLayout=stackLayout;horizontal=1;startSize=30;horizontalStack=0;resizeParent=1;resizeParentMax=0;resizeLast=0;collapsible=1;marginBottom=0;whiteSpace=wrap;html=1;" parent="1" vertex="1">
          <mxGeometry x="95" y="800" width="158.75" height="120" as="geometry" />
        </mxCell>
        <mxCell id="BvJ1IqxpmgRPftx4o2mJ-114" value="&lt;font color=&quot;#fafafa&quot;&gt;Id_Product&lt;/font&gt;" style="text;strokeColor=#666666;fillColor=#463e7e;align=left;verticalAlign=middle;spacingLeft=4;spacingRight=4;overflow=hidden;points=[[0,0.5],[1,0.5]];portConstraint=eastwest;rotatable=0;whiteSpace=wrap;html=1;gradientColor=#a95151;" parent="BvJ1IqxpmgRPftx4o2mJ-112" vertex="1">
          <mxGeometry y="30" width="158.75" height="30" as="geometry" />
        </mxCell>
        <mxCell id="BvJ1IqxpmgRPftx4o2mJ-113" value="&lt;font color=&quot;#fafafa&quot;&gt;Id_Attribute&lt;/font&gt;" style="text;strokeColor=#666666;fillColor=#463e7e;align=left;verticalAlign=middle;spacingLeft=4;spacingRight=4;overflow=hidden;points=[[0,0.5],[1,0.5]];portConstraint=eastwest;rotatable=0;whiteSpace=wrap;html=1;gradientColor=#a95151;" parent="BvJ1IqxpmgRPftx4o2mJ-112" vertex="1">
          <mxGeometry y="60" width="158.75" height="30" as="geometry" />
        </mxCell>
        <mxCell id="BvJ1IqxpmgRPftx4o2mJ-115" value="Value" style="text;strokeColor=none;fillColor=none;align=left;verticalAlign=middle;spacingLeft=4;spacingRight=4;overflow=hidden;points=[[0,0.5],[1,0.5]];portConstraint=eastwest;rotatable=0;whiteSpace=wrap;html=1;" parent="BvJ1IqxpmgRPftx4o2mJ-112" vertex="1">
          <mxGeometry y="90" width="158.75" height="30" as="geometry" />
        </mxCell>
        <mxCell id="BvJ1IqxpmgRPftx4o2mJ-116" value="" style="endArrow=ERone;html=1;rounded=0;startArrow=ERzeroToMany;startFill=0;endFill=0;exitX=0.504;exitY=1.03;exitDx=0;exitDy=0;exitPerimeter=0;entryX=0.5;entryY=0;entryDx=0;entryDy=0;" parent="1" source="BvJ1IqxpmgRPftx4o2mJ-102" target="BvJ1IqxpmgRPftx4o2mJ-112" edge="1">
          <mxGeometry width="50" height="50" relative="1" as="geometry">
            <mxPoint x="188.88" y="760" as="sourcePoint" />
            <mxPoint x="178.88" y="800" as="targetPoint" />
          </mxGeometry>
        </mxCell>
        <mxCell id="BvJ1IqxpmgRPftx4o2mJ-117" value="" style="endArrow=ERzeroToMany;html=1;rounded=0;startArrow=ERmandOne;startFill=0;endFill=0;entryX=0.006;entryY=0.138;entryDx=0;entryDy=0;entryPerimeter=0;exitX=0.882;exitY=-0.006;exitDx=0;exitDy=0;exitPerimeter=0;" parent="1" source="BvJ1IqxpmgRPftx4o2mJ-112" target="BvJ1IqxpmgRPftx4o2mJ-82" edge="1">
          <mxGeometry width="50" height="50" relative="1" as="geometry">
            <mxPoint x="218.88" y="800" as="sourcePoint" />
            <mxPoint x="334.13" y="750" as="targetPoint" />
            <Array as="points">
              <mxPoint x="235" y="740" />
            </Array>
          </mxGeometry>
        </mxCell>
        <mxCell id="BvJ1IqxpmgRPftx4o2mJ-118" value="&lt;font style=&quot;font-size: 18px;&quot;&gt;Supplier&lt;br&gt;&lt;/font&gt;" style="swimlane;fontStyle=0;childLayout=stackLayout;horizontal=1;startSize=30;horizontalStack=0;resizeParent=1;resizeParentMax=0;resizeLast=0;collapsible=1;marginBottom=0;whiteSpace=wrap;html=1;" parent="1" vertex="1">
          <mxGeometry x="635.94" y="680" width="96.12" height="180" as="geometry" />
        </mxCell>
        <mxCell id="BvJ1IqxpmgRPftx4o2mJ-119" value="&lt;font color=&quot;#fafafa&quot;&gt;Id&lt;/font&gt;" style="text;strokeColor=#666666;fillColor=#463e7e;align=left;verticalAlign=middle;spacingLeft=4;spacingRight=4;overflow=hidden;points=[[0,0.5],[1,0.5]];portConstraint=eastwest;rotatable=0;whiteSpace=wrap;html=1;gradientColor=#a95151;" parent="BvJ1IqxpmgRPftx4o2mJ-118" vertex="1">
          <mxGeometry y="30" width="96.12" height="30" as="geometry" />
        </mxCell>
        <mxCell id="BvJ1IqxpmgRPftx4o2mJ-120" value="Name" style="text;strokeColor=none;fillColor=none;align=left;verticalAlign=middle;spacingLeft=4;spacingRight=4;overflow=hidden;points=[[0,0.5],[1,0.5]];portConstraint=eastwest;rotatable=0;whiteSpace=wrap;html=1;" parent="BvJ1IqxpmgRPftx4o2mJ-118" vertex="1">
          <mxGeometry y="60" width="96.12" height="30" as="geometry" />
        </mxCell>
        <mxCell id="BvJ1IqxpmgRPftx4o2mJ-122" value="Email" style="text;strokeColor=none;fillColor=none;align=left;verticalAlign=middle;spacingLeft=4;spacingRight=4;overflow=hidden;points=[[0,0.5],[1,0.5]];portConstraint=eastwest;rotatable=0;whiteSpace=wrap;html=1;" parent="BvJ1IqxpmgRPftx4o2mJ-118" vertex="1">
          <mxGeometry y="90" width="96.12" height="30" as="geometry" />
        </mxCell>
        <mxCell id="BvJ1IqxpmgRPftx4o2mJ-123" value="Address" style="text;strokeColor=none;fillColor=none;align=left;verticalAlign=middle;spacingLeft=4;spacingRight=4;overflow=hidden;points=[[0,0.5],[1,0.5]];portConstraint=eastwest;rotatable=0;whiteSpace=wrap;html=1;" parent="BvJ1IqxpmgRPftx4o2mJ-118" vertex="1">
          <mxGeometry y="120" width="96.12" height="30" as="geometry" />
        </mxCell>
        <mxCell id="BvJ1IqxpmgRPftx4o2mJ-121" value="Description" style="text;strokeColor=none;fillColor=none;align=left;verticalAlign=middle;spacingLeft=4;spacingRight=4;overflow=hidden;points=[[0,0.5],[1,0.5]];portConstraint=eastwest;rotatable=0;whiteSpace=wrap;html=1;" parent="BvJ1IqxpmgRPftx4o2mJ-118" vertex="1">
          <mxGeometry y="150" width="96.12" height="30" as="geometry" />
        </mxCell>
        <mxCell id="BvJ1IqxpmgRPftx4o2mJ-125" value="&lt;font style=&quot;font-size: 18px;&quot;&gt;Delivery&lt;/font&gt;" style="swimlane;fontStyle=0;childLayout=stackLayout;horizontal=1;startSize=30;horizontalStack=0;resizeParent=1;resizeParentMax=0;resizeLast=0;collapsible=1;marginBottom=0;whiteSpace=wrap;html=1;" parent="1" vertex="1">
          <mxGeometry x="495" y="760" width="80" height="90" as="geometry" />
        </mxCell>
        <mxCell id="BvJ1IqxpmgRPftx4o2mJ-126" value="&lt;font color=&quot;#fafafa&quot;&gt;Id&lt;br&gt;&lt;/font&gt;" style="text;strokeColor=#666666;fillColor=#463e7e;align=left;verticalAlign=middle;spacingLeft=4;spacingRight=4;overflow=hidden;points=[[0,0.5],[1,0.5]];portConstraint=eastwest;rotatable=0;whiteSpace=wrap;html=1;gradientColor=#a95151;" parent="BvJ1IqxpmgRPftx4o2mJ-125" vertex="1">
          <mxGeometry y="30" width="80" height="30" as="geometry" />
        </mxCell>
        <mxCell id="BvJ1IqxpmgRPftx4o2mJ-133" value="Date" style="text;strokeColor=none;fillColor=none;align=left;verticalAlign=middle;spacingLeft=4;spacingRight=4;overflow=hidden;points=[[0,0.5],[1,0.5]];portConstraint=eastwest;rotatable=0;whiteSpace=wrap;html=1;" parent="BvJ1IqxpmgRPftx4o2mJ-125" vertex="1">
          <mxGeometry y="60" width="80" height="30" as="geometry" />
        </mxCell>
        <mxCell id="BvJ1IqxpmgRPftx4o2mJ-131" style="edgeStyle=orthogonalEdgeStyle;rounded=0;orthogonalLoop=1;jettySize=auto;html=1;exitX=0.5;exitY=1;exitDx=0;exitDy=0;endArrow=none;endFill=0;entryX=0.5;entryY=0;entryDx=0;entryDy=0;" parent="1" source="BvJ1IqxpmgRPftx4o2mJ-132" target="BvJ1IqxpmgRPftx4o2mJ-38" edge="1">
          <mxGeometry relative="1" as="geometry">
            <mxPoint x="430" y="340" as="targetPoint" />
          </mxGeometry>
        </mxCell>
        <mxCell id="BvJ1IqxpmgRPftx4o2mJ-132" value="&lt;font color=&quot;#fafafa&quot; style=&quot;font-size: 14px;&quot;&gt;Id&lt;/font&gt;" style="ellipse;whiteSpace=wrap;html=1;fontSize=18;fillColor=#30436e;gradientColor=#f46767;strokeColor=#0A0A0A;strokeWidth=4;shadow=1;dashed=1;dashPattern=1 1;" parent="1" vertex="1">
          <mxGeometry x="405.82" y="310" width="30" height="30" as="geometry" />
        </mxCell>
        <mxCell id="BvJ1IqxpmgRPftx4o2mJ-139" value="&lt;font style=&quot;font-size: 18px;&quot;&gt;Client&lt;/font&gt;" style="swimlane;fontStyle=0;childLayout=stackLayout;horizontal=1;startSize=30;horizontalStack=0;resizeParent=1;resizeParentMax=0;resizeLast=0;collapsible=1;marginBottom=0;whiteSpace=wrap;html=1;" parent="1" vertex="1">
          <mxGeometry x="94" y="980" width="80" height="150" as="geometry" />
        </mxCell>
        <mxCell id="BvJ1IqxpmgRPftx4o2mJ-140" value="&lt;font color=&quot;#fafafa&quot;&gt;Id&lt;/font&gt;" style="text;strokeColor=#666666;fillColor=#463e7e;align=left;verticalAlign=middle;spacingLeft=4;spacingRight=4;overflow=hidden;points=[[0,0.5],[1,0.5]];portConstraint=eastwest;rotatable=0;whiteSpace=wrap;html=1;gradientColor=#a95151;" parent="BvJ1IqxpmgRPftx4o2mJ-139" vertex="1">
          <mxGeometry y="30" width="80" height="30" as="geometry" />
        </mxCell>
        <mxCell id="BvJ1IqxpmgRPftx4o2mJ-141" value="Name" style="text;strokeColor=none;fillColor=none;align=left;verticalAlign=middle;spacingLeft=4;spacingRight=4;overflow=hidden;points=[[0,0.5],[1,0.5]];portConstraint=eastwest;rotatable=0;whiteSpace=wrap;html=1;" parent="BvJ1IqxpmgRPftx4o2mJ-139" vertex="1">
          <mxGeometry y="60" width="80" height="30" as="geometry" />
        </mxCell>
        <mxCell id="BvJ1IqxpmgRPftx4o2mJ-142" value="LastName" style="text;strokeColor=none;fillColor=none;align=left;verticalAlign=middle;spacingLeft=4;spacingRight=4;overflow=hidden;points=[[0,0.5],[1,0.5]];portConstraint=eastwest;rotatable=0;whiteSpace=wrap;html=1;" parent="BvJ1IqxpmgRPftx4o2mJ-139" vertex="1">
          <mxGeometry y="90" width="80" height="30" as="geometry" />
        </mxCell>
        <mxCell id="BvJ1IqxpmgRPftx4o2mJ-143" value="Age" style="text;strokeColor=none;fillColor=none;align=left;verticalAlign=middle;spacingLeft=4;spacingRight=4;overflow=hidden;points=[[0,0.5],[1,0.5]];portConstraint=eastwest;rotatable=0;whiteSpace=wrap;html=1;" parent="BvJ1IqxpmgRPftx4o2mJ-139" vertex="1">
          <mxGeometry y="120" width="80" height="30" as="geometry" />
        </mxCell>
        <mxCell id="BvJ1IqxpmgRPftx4o2mJ-153" value="&lt;font style=&quot;font-size: 18px;&quot;&gt;Bill&lt;/font&gt;" style="swimlane;fontStyle=0;childLayout=stackLayout;horizontal=1;startSize=30;horizontalStack=0;resizeParent=1;resizeParentMax=0;resizeLast=0;collapsible=1;marginBottom=0;whiteSpace=wrap;html=1;" parent="1" vertex="1">
          <mxGeometry x="215.25" y="980" width="79.75" height="150" as="geometry" />
        </mxCell>
        <mxCell id="BvJ1IqxpmgRPftx4o2mJ-154" value="&lt;font color=&quot;#fafafa&quot;&gt;Id_Sale&lt;br&gt;&lt;/font&gt;" style="text;strokeColor=#666666;fillColor=#463e7e;align=left;verticalAlign=middle;spacingLeft=4;spacingRight=4;overflow=hidden;points=[[0,0.5],[1,0.5]];portConstraint=eastwest;rotatable=0;whiteSpace=wrap;html=1;gradientColor=#a95151;" parent="BvJ1IqxpmgRPftx4o2mJ-153" vertex="1">
          <mxGeometry y="30" width="79.75" height="30" as="geometry" />
        </mxCell>
        <mxCell id="BvJ1IqxpmgRPftx4o2mJ-187" value="&lt;font color=&quot;#fafafa&quot;&gt;Id_Product&lt;br&gt;&lt;/font&gt;" style="text;strokeColor=#666666;fillColor=#463e7e;align=left;verticalAlign=middle;spacingLeft=4;spacingRight=4;overflow=hidden;points=[[0,0.5],[1,0.5]];portConstraint=eastwest;rotatable=0;whiteSpace=wrap;html=1;gradientColor=#a95151;" parent="BvJ1IqxpmgRPftx4o2mJ-153" vertex="1">
          <mxGeometry y="60" width="79.75" height="30" as="geometry" />
        </mxCell>
        <mxCell id="BvJ1IqxpmgRPftx4o2mJ-188" value="&lt;font color=&quot;#fafafa&quot;&gt;Id_Client&lt;br&gt;&lt;/font&gt;" style="text;strokeColor=#666666;fillColor=#463e7e;align=left;verticalAlign=middle;spacingLeft=4;spacingRight=4;overflow=hidden;points=[[0,0.5],[1,0.5]];portConstraint=eastwest;rotatable=0;whiteSpace=wrap;html=1;gradientColor=#a95151;" parent="BvJ1IqxpmgRPftx4o2mJ-153" vertex="1">
          <mxGeometry y="90" width="79.75" height="30" as="geometry" />
        </mxCell>
        <mxCell id="BvJ1IqxpmgRPftx4o2mJ-157" value="Count" style="text;strokeColor=none;fillColor=none;align=left;verticalAlign=middle;spacingLeft=4;spacingRight=4;overflow=hidden;points=[[0,0.5],[1,0.5]];portConstraint=eastwest;rotatable=0;whiteSpace=wrap;html=1;" parent="BvJ1IqxpmgRPftx4o2mJ-153" vertex="1">
          <mxGeometry y="120" width="79.75" height="30" as="geometry" />
        </mxCell>
        <mxCell id="BvJ1IqxpmgRPftx4o2mJ-162" style="edgeStyle=orthogonalEdgeStyle;rounded=0;orthogonalLoop=1;jettySize=auto;html=1;exitX=0.5;exitY=1;exitDx=0;exitDy=0;endArrow=none;endFill=0;entryX=0;entryY=0;entryDx=0;entryDy=0;" parent="1" source="BvJ1IqxpmgRPftx4o2mJ-163" target="BvJ1IqxpmgRPftx4o2mJ-43" edge="1">
          <mxGeometry relative="1" as="geometry">
            <mxPoint x="55" y="413" as="targetPoint" />
            <Array as="points">
              <mxPoint x="55" y="400" />
              <mxPoint x="65" y="400" />
            </Array>
          </mxGeometry>
        </mxCell>
        <mxCell id="BvJ1IqxpmgRPftx4o2mJ-163" value="&lt;font color=&quot;#fafafa&quot; style=&quot;font-size: 14px;&quot;&gt;Id&lt;/font&gt;" style="ellipse;whiteSpace=wrap;html=1;fontSize=18;fillColor=#30436e;gradientColor=#f46767;strokeColor=#0A0A0A;strokeWidth=4;dashed=1;dashPattern=1 1;shadow=1;" parent="1" vertex="1">
          <mxGeometry x="40" y="360" width="30" height="30" as="geometry" />
        </mxCell>
        <mxCell id="BvJ1IqxpmgRPftx4o2mJ-164" value="&lt;font style=&quot;font-size: 18px;&quot;&gt;Delivery_Note&lt;/font&gt;" style="swimlane;fontStyle=0;childLayout=stackLayout;horizontal=1;startSize=30;horizontalStack=0;resizeParent=1;resizeParentMax=0;resizeLast=0;collapsible=1;marginBottom=0;whiteSpace=wrap;html=1;" parent="1" vertex="1">
          <mxGeometry x="495" y="920" width="119.75" height="150" as="geometry" />
        </mxCell>
        <mxCell id="BvJ1IqxpmgRPftx4o2mJ-165" value="&lt;font color=&quot;#fafafa&quot;&gt;Id_Delivery&lt;br&gt;&lt;/font&gt;" style="text;strokeColor=#666666;fillColor=#463e7e;align=left;verticalAlign=middle;spacingLeft=4;spacingRight=4;overflow=hidden;points=[[0,0.5],[1,0.5]];portConstraint=eastwest;rotatable=0;whiteSpace=wrap;html=1;gradientColor=#a95151;" parent="BvJ1IqxpmgRPftx4o2mJ-164" vertex="1">
          <mxGeometry y="30" width="119.75" height="30" as="geometry" />
        </mxCell>
        <mxCell id="BvJ1IqxpmgRPftx4o2mJ-171" value="&lt;font color=&quot;#fafafa&quot;&gt;Id_Product&lt;br&gt;&lt;/font&gt;" style="text;strokeColor=#666666;fillColor=#463e7e;align=left;verticalAlign=middle;spacingLeft=4;spacingRight=4;overflow=hidden;points=[[0,0.5],[1,0.5]];portConstraint=eastwest;rotatable=0;whiteSpace=wrap;html=1;gradientColor=#a95151;" parent="BvJ1IqxpmgRPftx4o2mJ-164" vertex="1">
          <mxGeometry y="60" width="119.75" height="30" as="geometry" />
        </mxCell>
        <mxCell id="BvJ1IqxpmgRPftx4o2mJ-172" value="&lt;font color=&quot;#fafafa&quot;&gt;Id_Supplier&lt;br&gt;&lt;/font&gt;" style="text;strokeColor=#666666;fillColor=#463e7e;align=left;verticalAlign=middle;spacingLeft=4;spacingRight=4;overflow=hidden;points=[[0,0.5],[1,0.5]];portConstraint=eastwest;rotatable=0;whiteSpace=wrap;html=1;gradientColor=#a95151;" parent="BvJ1IqxpmgRPftx4o2mJ-164" vertex="1">
          <mxGeometry y="90" width="119.75" height="30" as="geometry" />
        </mxCell>
        <mxCell id="BvJ1IqxpmgRPftx4o2mJ-168" value="Count" style="text;strokeColor=none;fillColor=none;align=left;verticalAlign=middle;spacingLeft=4;spacingRight=4;overflow=hidden;points=[[0,0.5],[1,0.5]];portConstraint=eastwest;rotatable=0;whiteSpace=wrap;html=1;" parent="BvJ1IqxpmgRPftx4o2mJ-164" vertex="1">
          <mxGeometry y="120" width="119.75" height="30" as="geometry" />
        </mxCell>
        <mxCell id="BvJ1IqxpmgRPftx4o2mJ-176" value="&lt;font style=&quot;font-size: 18px;&quot;&gt;Sale&lt;/font&gt;" style="swimlane;fontStyle=0;childLayout=stackLayout;horizontal=1;startSize=30;horizontalStack=0;resizeParent=1;resizeParentMax=0;resizeLast=0;collapsible=1;marginBottom=0;whiteSpace=wrap;html=1;" parent="1" vertex="1">
          <mxGeometry x="334" y="940" width="79.75" height="90" as="geometry" />
        </mxCell>
        <mxCell id="BvJ1IqxpmgRPftx4o2mJ-177" value="&lt;font color=&quot;#fafafa&quot;&gt;Id&lt;br&gt;&lt;/font&gt;" style="text;strokeColor=#666666;fillColor=#463e7e;align=left;verticalAlign=middle;spacingLeft=4;spacingRight=4;overflow=hidden;points=[[0,0.5],[1,0.5]];portConstraint=eastwest;rotatable=0;whiteSpace=wrap;html=1;gradientColor=#a95151;" parent="BvJ1IqxpmgRPftx4o2mJ-176" vertex="1">
          <mxGeometry y="30" width="79.75" height="30" as="geometry" />
        </mxCell>
        <mxCell id="BvJ1IqxpmgRPftx4o2mJ-181" value="Date" style="text;strokeColor=none;fillColor=none;align=left;verticalAlign=middle;spacingLeft=4;spacingRight=4;overflow=hidden;points=[[0,0.5],[1,0.5]];portConstraint=eastwest;rotatable=0;whiteSpace=wrap;html=1;" parent="BvJ1IqxpmgRPftx4o2mJ-176" vertex="1">
          <mxGeometry y="60" width="79.75" height="30" as="geometry" />
        </mxCell>
        <mxCell id="BvJ1IqxpmgRPftx4o2mJ-182" value="" style="endArrow=ERzeroToMany;html=1;rounded=0;startArrow=ERmandOne;startFill=0;endFill=0;exitX=1;exitY=0.5;exitDx=0;exitDy=0;entryX=-0.018;entryY=0.114;entryDx=0;entryDy=0;entryPerimeter=0;" parent="1" source="BvJ1IqxpmgRPftx4o2mJ-138" target="BvJ1IqxpmgRPftx4o2mJ-164" edge="1">
          <mxGeometry width="50" height="50" relative="1" as="geometry">
            <mxPoint x="415" y="880" as="sourcePoint" />
            <mxPoint x="478" y="880" as="targetPoint" />
            <Array as="points">
              <mxPoint x="455" y="855" />
              <mxPoint x="455" y="937" />
            </Array>
          </mxGeometry>
        </mxCell>
        <mxCell id="BvJ1IqxpmgRPftx4o2mJ-183" value="" style="endArrow=ERoneToMany;html=1;rounded=0;startArrow=ERmandOne;startFill=0;endFill=0;exitX=0.491;exitY=1.007;exitDx=0;exitDy=0;exitPerimeter=0;entryX=0.5;entryY=0;entryDx=0;entryDy=0;" parent="1" source="BvJ1IqxpmgRPftx4o2mJ-133" target="BvJ1IqxpmgRPftx4o2mJ-164" edge="1">
          <mxGeometry width="50" height="50" relative="1" as="geometry">
            <mxPoint x="534" y="890" as="sourcePoint" />
            <mxPoint x="597" y="890" as="targetPoint" />
            <Array as="points">
              <mxPoint x="534" y="880" />
              <mxPoint x="555" y="880" />
            </Array>
          </mxGeometry>
        </mxCell>
        <mxCell id="BvJ1IqxpmgRPftx4o2mJ-184" value="" style="endArrow=ERzeroToMany;html=1;rounded=0;startArrow=ERmandOne;startFill=0;endFill=0;exitX=0.506;exitY=1.076;exitDx=0;exitDy=0;exitPerimeter=0;entryX=1.001;entryY=0.114;entryDx=0;entryDy=0;entryPerimeter=0;" parent="1" source="BvJ1IqxpmgRPftx4o2mJ-121" target="BvJ1IqxpmgRPftx4o2mJ-164" edge="1">
          <mxGeometry width="50" height="50" relative="1" as="geometry">
            <mxPoint x="632.5" y="930" as="sourcePoint" />
            <mxPoint x="625" y="940" as="targetPoint" />
            <Array as="points">
              <mxPoint x="685" y="937" />
            </Array>
          </mxGeometry>
        </mxCell>
        <mxCell id="BvJ1IqxpmgRPftx4o2mJ-185" value="" style="endArrow=ERzeroToMany;html=1;rounded=0;startArrow=ERmandOne;startFill=0;endFill=0;exitX=0.501;exitY=1.029;exitDx=0;exitDy=0;exitPerimeter=0;entryX=0.5;entryY=0;entryDx=0;entryDy=0;" parent="1" source="BvJ1IqxpmgRPftx4o2mJ-138" target="BvJ1IqxpmgRPftx4o2mJ-153" edge="1">
          <mxGeometry width="50" height="50" relative="1" as="geometry">
            <mxPoint x="335" y="900" as="sourcePoint" />
            <mxPoint x="398" y="900" as="targetPoint" />
            <Array as="points">
              <mxPoint x="334" y="900" />
              <mxPoint x="295" y="900" />
              <mxPoint x="295" y="960" />
              <mxPoint x="255" y="960" />
            </Array>
          </mxGeometry>
        </mxCell>
        <mxCell id="BvJ1IqxpmgRPftx4o2mJ-186" value="" style="endArrow=ERzeroToMany;html=1;rounded=0;startArrow=ERmandOne;startFill=0;endFill=0;exitX=0.996;exitY=0.084;exitDx=0;exitDy=0;exitPerimeter=0;entryX=0.009;entryY=0.088;entryDx=0;entryDy=0;entryPerimeter=0;" parent="1" source="BvJ1IqxpmgRPftx4o2mJ-139" target="BvJ1IqxpmgRPftx4o2mJ-153" edge="1">
          <mxGeometry width="50" height="50" relative="1" as="geometry">
            <mxPoint x="152.25" y="950" as="sourcePoint" />
            <mxPoint x="215" y="991" as="targetPoint" />
          </mxGeometry>
        </mxCell>
        <mxCell id="BvJ1IqxpmgRPftx4o2mJ-189" value="" style="endArrow=ERmandOne;html=1;rounded=0;startArrow=ERoneToMany;startFill=0;endFill=0;exitX=1.004;exitY=0.337;exitDx=0;exitDy=0;exitPerimeter=0;entryX=0.527;entryY=1.048;entryDx=0;entryDy=0;entryPerimeter=0;" parent="1" source="BvJ1IqxpmgRPftx4o2mJ-188" target="BvJ1IqxpmgRPftx4o2mJ-181" edge="1">
          <mxGeometry width="50" height="50" relative="1" as="geometry">
            <mxPoint x="342.38" y="1090" as="sourcePoint" />
            <mxPoint x="405.38" y="1090" as="targetPoint" />
            <Array as="points">
              <mxPoint x="376" y="1080" />
            </Array>
          </mxGeometry>
        </mxCell>
      </root>
    </mxGraphModel>
  </diagram>
</mxfile>
